<svg xmlns="http://www.w3.org/2000/svg" xmlns:xlink="http://www.w3.org/1999/xlink" version="1.1" id="Layer_1" x="0px" y="0px" viewBox="0 0 100 100" enable-background="new 0 0 100 100" xml:space="preserve" height="100px" width="100px">
<g>
	<path fill="#000000" d="M53.042,67.23h-17V50.462h17V67.23z M37.042,66.23h15V51.462h-15V66.23z"/>
</g>
<g>
	<path fill="#000000" d="M74.708,67.23h-17V50.462h17V67.23z M58.708,66.23h15V51.462h-15V66.23z"/>
</g>
<g>
	<path fill="#000000" d="M93,88H7V22h86V88z M9,86h82V24H9V86z"/>
</g>
<g>
	<path fill="#000000" d="M93,24H7v-9.204C7,13.069,8.752,12,10.375,12h79.25C91.248,12,93,13.069,93,14.796V24z M9,22h82v-7.204   C91,14.402,90.306,14,89.625,14h-79.25C9.694,14,9,14.402,9,14.796V22z"/>
</g>
<g>
	<circle fill="#000000" cx="14.208" cy="17.792" r="1.542"/>
</g>
<g>
	<circle fill="#000000" cx="19.208" cy="17.792" r="1.542"/>
</g>
<g>
	<circle fill="#000000" cx="24.208" cy="17.792" r="1.542"/>
</g>
<g>
	<path fill="#000000" d="M52.75,32.731H37c-0.276,0-0.5-0.224-0.5-0.5s0.224-0.5,0.5-0.5h15.75c0.276,0,0.5,0.224,0.5,0.5   S53.026,32.731,52.75,32.731z"/>
</g>
<g>
	<path fill="#000000" d="M73.75,38.898H37c-0.276,0-0.5-0.224-0.5-0.5s0.224-0.5,0.5-0.5h36.75c0.276,0,0.5,0.224,0.5,0.5   S74.026,38.898,73.75,38.898z"/>
</g>
<g>
	<path fill="#000000" d="M73.75,44.898H37c-0.276,0-0.5-0.224-0.5-0.5s0.224-0.5,0.5-0.5h36.75c0.276,0,0.5,0.224,0.5,0.5   S74.026,44.898,73.75,44.898z"/>
</g>
<g>
	<path fill="#000000" d="M74.125,73.89H36.542c-0.276,0-0.5-0.224-0.5-0.5s0.224-0.5,0.5-0.5h37.583c0.276,0,0.5,0.224,0.5,0.5   S74.401,73.89,74.125,73.89z"/>
</g>
<g>
	<path fill="#000000" d="M74.125,79.89H36.542c-0.276,0-0.5-0.224-0.5-0.5s0.224-0.5,0.5-0.5h37.583c0.276,0,0.5,0.224,0.5,0.5   S74.401,79.89,74.125,79.89z"/>
</g>
<path fill="#000000" d="M22.417,30.381c-4.162,0-7.535,3.374-7.535,7.535c0,4.162,3.374,7.535,7.535,7.535s7.535-3.374,7.535-7.535  C29.952,33.755,26.578,30.381,22.417,30.381z M22.417,41.547h-3.63c0,0,0-0.649,0.316-1.281c0.235-0.471,1.176-0.749,2.438-1.223  v-1.001c0,0-0.386-0.301-0.386-0.932c-0.158,0-0.316-0.631,0-0.789c0-0.128-0.631-1.578,0.316-1.578  c0.158-0.631,2.367-0.631,2.525,0.158c0.107,0.536-0.316,1.327-0.316,1.42c0.316,0.158,0.158,0.789,0,0.789  c0,0.631-0.386,0.987-0.386,0.987v0.947c1.263,0.474,2.203,0.752,2.438,1.223c0.316,0.631,0.316,1.281,0.316,1.281H22.417z"/>
</svg>