<svg xmlns="http://www.w3.org/2000/svg" xmlns:xlink="http://www.w3.org/1999/xlink" version="1.1" id="Layer_1" x="0px" y="0px" width="100px" height="100px" viewBox="0 0 100 100" enable-background="new 0 0 100 100" xml:space="preserve">
<g>
	<path d="M50.006,24.547c-5.509,0-9.079,3.638-9.079,8.066c0,3.018,0.646,6.627,2.08,9.617c1.405,2.989,3.738,5.443,6.971,5.527   c0.028,0,0.056,0,0.056,0c3.232-0.084,5.537-2.538,6.971-5.527c1.405-2.99,2.052-6.6,2.052-9.617   C59.057,28.185,55.544,24.547,50.006,24.547L50.006,24.547z M50.006,26.126c4.863,0,7.478,2.877,7.478,6.487   c0,2.764-0.646,6.232-1.912,8.94c-1.293,2.679-3.092,4.512-5.537,4.625c0,0-0.028,0-0.056,0c-2.445-0.113-4.272-1.946-5.538-4.625   c-1.293-2.708-1.939-6.177-1.939-8.94C42.501,29.003,45.144,26.126,50.006,26.126L50.006,26.126z M29.572,29.06   c-4.694,0-7.758,3.13-7.758,6.909c0,2.539,0.562,5.613,1.771,8.18c1.208,2.538,3.176,4.625,5.987,4.71H29.6   c2.811-0.085,4.778-2.172,5.987-4.71c1.208-2.566,1.771-5.641,1.771-8.18C37.357,32.189,34.294,29.06,29.572,29.06L29.572,29.06z    M70.385,29.06c-4.694,0-7.758,3.13-7.758,6.909c0,2.539,0.562,5.613,1.771,8.18c1.209,2.538,3.204,4.625,5.987,4.71h0.027   c2.783-0.085,4.778-2.172,5.987-4.71c1.237-2.566,1.771-5.641,1.771-8.18C78.17,32.189,75.078,29.06,70.385,29.06L70.385,29.06z    M29.572,30.667c4.047,0,6.184,2.341,6.184,5.302c0,2.313-0.506,5.218-1.574,7.475c-1.068,2.228-2.586,3.751-4.582,3.835h-0.028   c-1.996-0.084-3.485-1.607-4.554-3.835c-1.068-2.257-1.602-5.161-1.602-7.475c0-2.961,2.136-5.302,6.184-5.302H29.572z    M70.385,30.667c4.047,0,6.212,2.341,6.212,5.302c0,2.313-0.534,5.218-1.631,7.475c-1.068,2.256-2.558,3.751-4.554,3.835h-0.027   c-1.996-0.084-3.485-1.579-4.554-3.835c-1.068-2.257-1.603-5.161-1.603-7.475C64.229,33.008,66.337,30.667,70.385,30.667   L70.385,30.667z M49.106,49.112c-3.767,0.141-7.308,1.184-10.344,2.876c-2.698-1.41-5.846-2.228-9.191-2.228   c-8.208,0-15.375,4.936-17.23,11.958c-0.028,0.028-0.028,0.056-0.028,0.084c-0.421,2.595-0.028,4.541,1.04,5.895   c1.068,1.354,2.698,2.087,4.61,2.708c3.513,1.156,7.477,1.776,11.608,1.776c1.181,0,2.333-0.057,3.457-0.169   c0.956,0.536,2.024,0.959,3.205,1.354c4.16,1.354,8.854,2.087,13.772,2.087s9.585-0.733,13.745-2.087   c1.181-0.395,2.276-0.817,3.204-1.354c1.125,0.112,2.249,0.169,3.43,0.169c4.159,0,8.095-0.62,11.637-1.776   c1.911-0.621,3.541-1.354,4.638-2.708c1.067-1.354,1.433-3.3,1.04-5.895c0-0.028-0.028-0.056-0.028-0.084   c-1.855-7.022-9.079-11.958-17.286-11.958c-3.317,0-6.437,0.817-9.136,2.228c-3.288-1.833-7.139-2.876-11.243-2.876   C49.753,49.112,49.416,49.112,49.106,49.112L49.106,49.112z M49.135,50.691c0.253,0,0.562,0,0.871,0   c3.907,0,7.59,1.043,10.653,2.792c0.057,0.028,0.084,0.056,0.141,0.084c0.422,0.254,0.843,0.508,1.236,0.79   c0.028,0.028,0.028,0.028,0.057,0.057c0.337,0.226,0.646,0.479,0.956,0.705c0.084,0.084,0.14,0.112,0.225,0.197   c0.196,0.169,0.394,0.338,0.59,0.508c0.31,0.282,0.618,0.563,0.899,0.846c0.338,0.339,0.618,0.705,0.928,1.044   c0.197,0.254,0.394,0.479,0.591,0.733v0.027c0.027,0.028,0.056,0.028,0.056,0.057c0.281,0.367,0.506,0.733,0.73,1.101   c0.197,0.31,0.366,0.62,0.534,0.958c0.057,0.085,0.112,0.198,0.169,0.282c0,0.028,0.028,0.085,0.028,0.113   c0.196,0.395,0.365,0.789,0.534,1.213c0.168,0.451,0.309,0.902,0.449,1.354v0.028c0.084,0.508,0.112,0.959,0.141,1.41   c0,0,0,0,0,0.028l0,0c0.028,0.423,0.057,0.817,0.028,1.185v0.084c-0.028,0.311-0.085,0.621-0.141,0.902   c-0.141,0.593-0.31,1.101-0.591,1.552c0,0.028-0.027,0.028-0.027,0.057c-0.085,0.141-0.169,0.254-0.281,0.395   c-0.028,0.028-0.057,0.085-0.112,0.112c-0.085,0.113-0.169,0.198-0.253,0.311c-0.112,0.113-0.253,0.197-0.394,0.311   c-0.028,0.057-0.112,0.084-0.169,0.141c-0.196,0.142-0.422,0.282-0.646,0.423c-0.084,0.057-0.141,0.113-0.225,0.17   c-0.787,0.451-1.743,0.817-2.867,1.185c-3.991,1.325-8.46,2.03-13.239,2.03c-4.75,0-9.304-0.733-13.295-2.03   c-1.124-0.367-2.08-0.762-2.895-1.213c-0.028-0.028-0.028-0.028-0.056-0.057c-0.028,0-0.028-0.028-0.056-0.057   c-0.028,0-0.028,0-0.056-0.028c-0.225-0.141-0.45-0.281-0.675-0.423c-0.028-0.028-0.056-0.057-0.084-0.084   c-0.028,0-0.028-0.028-0.028-0.028c-0.197-0.17-0.394-0.311-0.534-0.508c-0.197-0.169-0.365-0.395-0.506-0.621   c-0.141-0.226-0.281-0.479-0.365-0.732c-0.056-0.142-0.113-0.282-0.169-0.424c-0.028-0.141-0.084-0.254-0.112-0.395   c0-0.028,0-0.057,0-0.085c-0.141-0.62-0.168-1.325-0.112-2.171v-0.085c0-0.423,0.056-0.874,0.141-1.382   c0.112-0.423,0.253-0.847,0.421-1.27c0-0.028,0-0.056,0-0.056c0.112-0.339,0.281-0.649,0.422-0.959   c0.084-0.198,0.168-0.396,0.281-0.593c0.056-0.141,0.141-0.282,0.197-0.423c0.084-0.113,0.168-0.254,0.225-0.367   c0.028-0.056,0.056-0.112,0.084-0.141c0.056-0.112,0.141-0.197,0.197-0.311c0.141-0.226,0.281-0.423,0.422-0.648   c0.056-0.084,0.112-0.169,0.168-0.254c0.197-0.254,0.394-0.508,0.59-0.762c0.309-0.366,0.646-0.732,1.012-1.1   c0.281-0.282,0.59-0.563,0.872-0.846c0.141-0.113,0.281-0.254,0.421-0.367c0.366-0.338,0.787-0.648,1.209-0.959   c0.309-0.197,0.646-0.395,0.956-0.62c0.084-0.028,0.141-0.085,0.197-0.112c0.112-0.057,0.197-0.113,0.281-0.17   C42.051,51.876,45.48,50.832,49.135,50.691L49.135,50.691z M29.572,51.34c2.727,0,5.228,0.705,7.477,1.72   c-2.249,1.58-4.132,3.526-5.509,5.782c-0.253,0.423-0.506,0.846-0.703,1.297c-0.028,0.028-0.056,0.057-0.056,0.085   c-0.028,0.028-0.028,0.085-0.056,0.113c-0.225,0.423-0.394,0.902-0.562,1.354c-0.028,0.084-0.056,0.141-0.084,0.197   c-0.141,0.451-0.309,0.874-0.421,1.325c0,0.028-0.028,0.057-0.028,0.113c-0.084,0.536-0.141,1.016-0.168,1.495   c0,0.084,0,0.169,0,0.253c0,0.17-0.028,0.339-0.028,0.479c0,0.254,0.028,0.508,0.028,0.733c0.028,0.226,0.056,0.451,0.084,0.649   c0.028,0.169,0.028,0.338,0.056,0.479c0.028,0.057,0.028,0.113,0.028,0.142c0.056,0.197,0.112,0.366,0.168,0.563   c0.056,0.198,0.113,0.396,0.197,0.564c0,0.028,0,0.028,0.028,0.057c0.028,0.112,0.112,0.254,0.168,0.366   c0.028,0.057,0.028,0.113,0.056,0.17c0.057,0.112,0.113,0.197,0.169,0.281c0.112,0.198,0.225,0.367,0.365,0.536   c0.028,0.028,0.028,0.057,0.056,0.085c0.084,0.112,0.197,0.226,0.281,0.31c-0.506,0.028-1.012,0.085-1.518,0.085   c-4.019,0-7.786-0.592-11.13-1.692c-1.827-0.592-3.12-1.24-3.879-2.172c-0.731-0.958-1.068-2.284-0.731-4.597   c1.659-6.205,8.151-10.773,15.74-10.773H29.572z M70.385,51.34c7.532,0,14.054,4.541,15.712,10.717   c0.394,2.341,0.057,3.695-0.675,4.653c-0.759,0.932-2.08,1.58-3.907,2.172c-3.345,1.101-7.139,1.692-11.13,1.692   c-0.506,0-1.012-0.057-1.519-0.085c0.113-0.084,0.226-0.197,0.31-0.31c0.028-0.028,0.028-0.057,0.057-0.085   c0.112-0.169,0.253-0.338,0.365-0.536c0.084-0.141,0.141-0.281,0.225-0.451c0.028-0.084,0.084-0.141,0.112-0.226   c0.028-0.057,0.057-0.141,0.085-0.197c0.056-0.169,0.14-0.366,0.196-0.536c0.057-0.197,0.112-0.395,0.141-0.592   c0.028-0.057,0.056-0.169,0.056-0.226c0.028-0.142,0.028-0.254,0.057-0.395c0.028-0.198,0.057-0.424,0.057-0.649   c0.027-0.084,0-0.169,0-0.254c0.027-0.141,0.027-0.281,0.027-0.395c0-0.057,0-0.141,0-0.197c0-0.169,0-0.367-0.027-0.564v-0.056   c-0.028-0.479-0.085-0.959-0.169-1.495c0-0.057,0-0.085-0.028-0.113c-0.084-0.366-0.196-0.705-0.309-1.071   c-0.226-0.648-0.507-1.298-0.787-1.918c-1.378-2.849-3.542-5.302-6.269-7.191C65.213,52.017,67.714,51.34,70.385,51.34   L70.385,51.34z"/>
</g>
</svg>